<?xml version="1.0" encoding="UTF-8"?>
<svg width="113px" height="93px" viewBox="0 0 113 93" version="1.1" xmlns="http://www.w3.org/2000/svg" xmlns:xlink="http://www.w3.org/1999/xlink">
    <!-- Generator: Sketch 56.2 (81672) - https://sketch.com -->
    <title>logo only</title>
    <desc>Created with Sketch.</desc>
    <g id="logo-only" stroke="none" stroke-width="1" fill="none" fill-rule="evenodd">
        <g id="mark" fill="#CC4645">
            <g>
                <polygon id="Fill-1" points="82.7399 78.7747 112.3358 27.513 104.6058 14.1241 77.9814 60.2387 75.0098 65.3858 64.3416 46.909 64.3416 46.9085 58.2712 36.3939 45.4133 14.1241 51.3569 14.1241 67.8101 14.1241 59.5837 28.3727 67.3134 41.761 83.27 14.1241 90.9992 0.7349 75.5402 0.7349 37.6835 0.7349 22.2233 0.7355 29.9534 14.1241 48.8817 46.9085 48.8817 46.909 67.2794 78.7747 75.0092 92.1639"></polygon>
                <polygon id="Fill-2" points="38.2141 65.3861 8.7256 14.3106 0.9955 27.6992 30.484 78.7747 38.2141 92.1639 45.9436 78.7744 53.6397 65.4442 45.9102 52.0559"></polygon>
            </g>
        </g>
    </g>
</svg>